<?xml version="1.0" encoding="UTF-8"?><svg xmlns="http://www.w3.org/2000/svg" viewBox="0 0 2134.74 338.53"><g id="a"><g id="b"/><g id="c"/><g id="d"/><g id="e"/><g id="f"/><g id="g"/><g id="h"/></g><g id="i"><g id="j"/></g><g id="k"/><g id="l"/><g id="m"><g><path d="M197.06,100.94L41.96,158.84v-4.2l155.1,57.6v16.2L29.06,164.54v-15.6l168-63.9v15.9Z"/><path d="M297.86,30.74h14.7l-84,241.2h-14.7L297.86,30.74Z"/><path d="M338.96,93.14h50.1v54.3l-2.1,6.6v41.1l2.1,12.3v105.9h-50.1V93.14Zm32.7,85.5c3.4-18.2,9.35-34.05,17.85-47.55,8.5-13.5,19.2-23.95,32.1-31.35,12.9-7.4,27.25-11.1,43.05-11.1,16.8,0,31.55,3.75,44.25,11.25,12.7,7.5,22.65,18,29.85,31.5,7.2,13.5,10.8,29.25,10.8,47.25s-3.6,33.45-10.8,46.95c-7.2,13.5-17.15,24-29.85,31.5-12.7,7.5-27.45,11.25-44.25,11.25s-30.35-3.7-43.05-11.1c-12.7-7.4-23.35-17.85-31.95-31.35-8.6-13.5-14.6-29.25-18-47.25Zm127.2,0c0-10-2.05-18.85-6.15-26.55-4.1-7.7-9.75-13.7-16.95-18-7.2-4.3-15.5-6.45-24.9-6.45s-18.3,2.15-26.7,6.45c-8.4,4.3-15.75,10.3-22.05,18-6.3,7.7-11.25,16.55-14.85,26.55,3.6,10,8.55,18.8,14.85,26.4,6.3,7.6,13.65,13.55,22.05,17.85,8.4,4.3,17.3,6.45,26.7,6.45s17.7-2.15,24.9-6.45c7.2-4.3,12.85-10.25,16.95-17.85,4.1-7.6,6.15-16.4,6.15-26.4Z"/><path d="M578.95,32.84h50.1v231h-50.1V32.84Zm115.2,55.8c16.2,0,30,3.25,41.4,9.75,11.4,6.5,20.1,15.75,26.1,27.75s9,26.3,9,42.9v94.8h-50.1v-87.3c0-15.4-3.7-27.05-11.1-34.95-7.4-7.9-18.1-11.85-32.1-11.85-9.8,0-18.35,2.15-25.65,6.45-7.3,4.3-12.9,10.25-16.8,17.85-3.9,7.6-5.85,16.7-5.85,27.3l-16.5-8.7c2.2-18,7.05-33.2,14.55-45.6,7.5-12.4,17.05-21.9,28.65-28.5,11.6-6.6,24.4-9.9,38.4-9.9Z"/><path d="M830.95,73.64c-9,0-16.35-2.35-22.05-7.05-5.7-4.7-8.55-11.05-8.55-19.05s2.85-14.05,8.55-18.75c5.7-4.7,13.05-7.05,22.05-7.05s16.6,2.35,22.2,7.05c5.6,4.7,8.4,10.95,8.4,18.75s-2.8,14.35-8.4,19.05c-5.6,4.7-13,7.05-22.2,7.05Zm-24.9,17.7l24.9,4.8,25.2-4.8v172.5h-50.1V91.34Z"/><path d="M1080.85,210.14c0,12.2-3.55,22.7-10.65,31.5-7.1,8.8-17.65,15.45-31.65,19.95-14,4.5-31.1,6.75-51.3,6.75s-38.9-2.55-54.3-7.65c-15.4-5.1-27.4-12.35-36-21.75-8.6-9.4-13.2-20.3-13.8-32.7h51c1.2,5.6,4.2,10.45,9,14.55,4.8,4.1,11.05,7.25,18.75,9.45,7.7,2.2,16.65,3.3,26.85,3.3,14.2,0,24.95-1.6,32.25-4.8,7.3-3.2,10.95-8,10.95-14.4,0-4.6-2.55-8.1-7.65-10.5s-14.45-4.2-28.05-5.4l-31.8-2.4c-19-1.6-34.1-4.8-45.3-9.6-11.2-4.8-19.15-10.85-23.85-18.15-4.7-7.3-7.05-15.35-7.05-24.15,0-12.2,3.8-22.4,11.4-30.6,7.6-8.2,18.25-14.4,31.95-18.6,13.7-4.2,29.55-6.3,47.55-6.3s34.8,2.5,49.2,7.5c14.4,5,25.95,11.9,34.65,20.7,8.7,8.8,13.65,19,14.85,30.6h-51c-.8-4.2-3.05-8.15-6.75-11.85-3.7-3.7-9.05-6.75-16.05-9.15-7-2.4-16.1-3.6-27.3-3.6-12.6,0-22.3,1.45-29.1,4.35-6.8,2.9-10.2,7.25-10.2,13.05,0,4,2.1,7.25,6.3,9.75,4.2,2.5,12,4.25,23.4,5.25l41.4,3.3c18.4,1.6,32.9,4.65,43.5,9.15,10.6,4.5,18.05,10.35,22.35,17.55,4.3,7.2,6.45,15.5,6.45,24.9Z"/><path d="M1109.65,32.84h50.1v231h-50.1V32.84Zm115.2,55.8c16.2,0,30,3.25,41.4,9.75,11.4,6.5,20.1,15.75,26.1,27.75s9,26.3,9,42.9v94.8h-50.1v-87.3c0-15.4-3.7-27.05-11.1-34.95-7.4-7.9-18.1-11.85-32.1-11.85-9.8,0-18.35,2.15-25.65,6.45-7.3,4.3-12.9,10.25-16.8,17.85-3.9,7.6-5.85,16.7-5.85,27.3l-16.5-8.7c2.2-18,7.05-33.2,14.55-45.6,7.5-12.4,17.05-21.9,28.65-28.5,11.6-6.6,24.4-9.9,38.4-9.9Z"/><path d="M1427.64,267.44c-19,0-35.75-3.7-50.25-11.1-14.5-7.4-25.8-17.7-33.9-30.9-8.1-13.2-12.15-28.4-12.15-45.6s3.85-32.65,11.55-45.75c7.7-13.1,18.35-23.35,31.95-30.75,13.6-7.4,29.4-11.1,47.4-11.1s32.7,3.8,45.9,11.4c13.2,7.6,23.5,18.15,30.9,31.65,7.4,13.5,11.1,29.15,11.1,46.95h-167.7v-14.4h163.8l-12.9,9c-.6-14-3.9-26.2-9.9-36.6-6-10.4-14.25-18.45-24.75-24.15s-22.65-8.55-36.45-8.55c-15,0-28.05,3-39.15,9s-19.7,14.4-25.8,25.2c-6.1,10.8-9.15,23.5-9.15,38.1s3.3,27.3,9.9,38.1c6.6,10.8,15.85,19.2,27.75,25.2,11.9,6,25.85,9,41.85,9,14.8,0,28.7-2.6,41.7-7.8,13-5.2,24.9-12.1,35.7-20.7v15.3c-10.4,8.8-22.6,15.75-36.6,20.85-14,5.1-27.6,7.65-40.8,7.65Z"/><path d="M1619.96,258.44l-82.5-162.6h18l81.6,162.6h-17.1Zm-36.9,58.5c-7.2,0-13.6-.9-19.2-2.7-5.6-1.8-11.5-4.7-17.7-8.7v-14.1c5.8,3.6,11.45,6.25,16.95,7.95,5.5,1.7,11.95,2.55,19.35,2.55,8.8,0,16.25-2,22.35-6,6.1-4,11.25-10.2,15.45-18.6l91.8-181.5h17.4l-96.6,188.7c-3.8,7.2-8.1,13.2-12.9,18-4.8,4.8-10.25,8.4-16.35,10.8-6.1,2.4-12.95,3.6-20.55,3.6Z"/><path d="M1835.96,267.44c-19,0-35.75-3.7-50.25-11.1-14.5-7.4-25.8-17.7-33.9-30.9-8.1-13.2-12.15-28.4-12.15-45.6s3.85-32.65,11.55-45.75c7.7-13.1,18.35-23.35,31.95-30.75,13.6-7.4,29.4-11.1,47.4-11.1s32.7,3.8,45.9,11.4c13.2,7.6,23.5,18.15,30.9,31.65,7.4,13.5,11.1,29.15,11.1,46.95h-167.7v-14.4h163.8l-12.9,9c-.6-14-3.9-26.2-9.9-36.6-6-10.4-14.25-18.45-24.75-24.15s-22.65-8.55-36.45-8.55c-15,0-28.05,3-39.15,9s-19.7,14.4-25.8,25.2c-6.1,10.8-9.15,23.5-9.15,38.1s3.3,27.3,9.9,38.1c6.6,10.8,15.85,19.2,27.75,25.2,11.9,6,25.85,9,41.85,9,14.8,0,28.7-2.6,41.7-7.8,13-5.2,24.9-12.1,35.7-20.7v15.3c-10.4,8.8-22.6,15.75-36.6,20.85-14,5.1-27.6,7.65-40.8,7.65Z"/><path d="M1940.06,100.94v-15.9l168,63.9v15.6l-168,63.9v-16.2l155.1-57.6v4.2l-155.1-57.9Z"/></g></g></svg>