<svg id="visual" viewBox="0 0 1500 2500" width="1500" height="2500" xmlns="http://www.w3.org/2000/svg" xmlns:xlink="http://www.w3.org/1999/xlink" version="1.1"><path d="M0 226L14.7 217.7C29.3 209.3 58.7 192.7 88 180.2C117.3 167.7 146.7 159.3 176.2 167.7C205.7 176 235.3 201 264.8 209.3C294.3 217.7 323.7 209.3 353 209.3C382.3 209.3 411.7 217.7 441 230.2C470.3 242.7 499.7 259.3 529.2 255.2C558.7 251 588.3 226 617.8 213.5C647.3 201 676.7 201 706 217.7C735.3 234.3 764.7 267.7 794 276C823.3 284.3 852.7 267.7 882.2 259.3C911.7 251 941.3 251 970.8 255.2C1000.3 259.3 1029.7 267.7 1059 255.2C1088.3 242.7 1117.7 209.3 1147 213.5C1176.3 217.7 1205.7 259.3 1235.2 263.5C1264.7 267.7 1294.3 234.3 1323.8 230.2C1353.3 226 1382.7 251 1412 255.2C1441.3 259.3 1470.7 242.7 1485.3 234.3L1500 226L1500 0L1485.3 0C1470.7 0 1441.3 0 1412 0C1382.7 0 1353.3 0 1323.8 0C1294.3 0 1264.7 0 1235.2 0C1205.7 0 1176.3 0 1147 0C1117.7 0 1088.3 0 1059 0C1029.7 0 1000.3 0 970.8 0C941.3 0 911.7 0 882.2 0C852.7 0 823.3 0 794 0C764.7 0 735.3 0 706 0C676.7 0 647.3 0 617.8 0C588.3 0 558.7 0 529.2 0C499.7 0 470.3 0 441 0C411.7 0 382.3 0 353 0C323.7 0 294.3 0 264.8 0C235.3 0 205.7 0 176.2 0C146.7 0 117.3 0 88 0C58.7 0 29.3 0 14.7 0L0 0Z" fill="#f7bcb1"></path><path d="M0 326L14.7 313.5C29.3 301 58.7 276 88 267.7C117.3 259.3 146.7 267.7 176.2 288.5C205.7 309.3 235.3 342.7 264.8 342.7C294.3 342.7 323.7 309.3 353 296.8C382.3 284.3 411.7 292.7 441 313.5C470.3 334.3 499.7 367.7 529.2 367.7C558.7 367.7 588.3 334.3 617.8 321.8C647.3 309.3 676.7 317.7 706 334.3C735.3 351 764.7 376 794 384.3C823.3 392.7 852.7 384.3 882.2 380.2C911.7 376 941.3 376 970.8 371.8C1000.3 367.7 1029.7 359.3 1059 346.8C1088.3 334.3 1117.7 317.7 1147 330.2C1176.3 342.7 1205.7 384.3 1235.2 388.5C1264.7 392.7 1294.3 359.3 1323.8 346.8C1353.3 334.3 1382.7 342.7 1412 338.5C1441.3 334.3 1470.7 317.7 1485.3 309.3L1500 301L1500 224L1485.3 232.3C1470.7 240.7 1441.3 257.3 1412 253.2C1382.7 249 1353.3 224 1323.8 228.2C1294.3 232.3 1264.7 265.7 1235.2 261.5C1205.7 257.3 1176.3 215.7 1147 211.5C1117.7 207.3 1088.3 240.7 1059 253.2C1029.7 265.7 1000.3 257.3 970.8 253.2C941.3 249 911.7 249 882.2 257.3C852.7 265.7 823.3 282.3 794 274C764.7 265.7 735.3 232.3 706 215.7C676.7 199 647.3 199 617.8 211.5C588.3 224 558.7 249 529.2 253.2C499.7 257.3 470.3 240.7 441 228.2C411.7 215.7 382.3 207.3 353 207.3C323.7 207.3 294.3 215.7 264.8 207.3C235.3 199 205.7 174 176.2 165.7C146.7 157.3 117.3 165.7 88 178.2C58.7 190.7 29.3 207.3 14.7 215.7L0 224Z" fill="#f4aea2"></path><path d="M0 426L14.7 417.7C29.3 409.3 58.7 392.7 88 388.5C117.3 384.3 146.7 392.7 176.2 405.2C205.7 417.7 235.3 434.3 264.8 434.3C294.3 434.3 323.7 417.7 353 405.2C382.3 392.7 411.7 384.3 441 396.8C470.3 409.3 499.7 442.7 529.2 446.8C558.7 451 588.3 426 617.8 421.8C647.3 417.7 676.7 434.3 706 451C735.3 467.7 764.7 484.3 794 488.5C823.3 492.7 852.7 484.3 882.2 480.2C911.7 476 941.3 476 970.8 471.8C1000.3 467.7 1029.7 459.3 1059 446.8C1088.3 434.3 1117.7 417.7 1147 430.2C1176.3 442.7 1205.7 484.3 1235.2 488.5C1264.7 492.7 1294.3 459.3 1323.8 446.8C1353.3 434.3 1382.7 442.7 1412 442.7C1441.3 442.7 1470.7 434.3 1485.3 430.2L1500 426L1500 299L1485.3 307.3C1470.7 315.7 1441.3 332.3 1412 336.5C1382.7 340.7 1353.3 332.3 1323.8 344.8C1294.3 357.3 1264.7 390.7 1235.2 386.5C1205.7 382.3 1176.3 340.7 1147 328.2C1117.7 315.7 1088.3 332.3 1059 344.8C1029.7 357.3 1000.3 365.7 970.8 369.8C941.3 374 911.7 374 882.2 378.2C852.7 382.3 823.3 390.7 794 382.3C764.7 374 735.3 349 706 332.3C676.7 315.7 647.3 307.3 617.8 319.8C588.3 332.3 558.7 365.7 529.2 365.7C499.7 365.7 470.3 332.3 441 311.5C411.7 290.7 382.3 282.3 353 294.8C323.7 307.3 294.3 340.7 264.8 340.7C235.3 340.7 205.7 307.3 176.2 286.5C146.7 265.7 117.3 257.3 88 265.7C58.7 274 29.3 299 14.7 311.5L0 324Z" fill="#f1a093"></path><path d="M0 551L14.7 542.7C29.3 534.3 58.7 517.7 88 513.5C117.3 509.3 146.7 517.7 176.2 530.2C205.7 542.7 235.3 559.3 264.8 559.3C294.3 559.3 323.7 542.7 353 530.2C382.3 517.7 411.7 509.3 441 517.7C470.3 526 499.7 551 529.2 546.8C558.7 542.7 588.3 509.3 617.8 501C647.3 492.7 676.7 509.3 706 526C735.3 542.7 764.7 559.3 794 563.5C823.3 567.7 852.7 559.3 882.2 559.3C911.7 559.3 941.3 567.7 970.8 563.5C1000.3 559.3 1029.7 542.7 1059 530.2C1088.3 517.7 1117.7 509.3 1147 526C1176.3 542.7 1205.7 584.3 1235.2 592.7C1264.7 601 1294.3 576 1323.8 563.5C1353.3 551 1382.7 551 1412 551C1441.3 551 1470.7 551 1485.3 551L1500 551L1500 424L1485.3 428.2C1470.7 432.3 1441.3 440.7 1412 440.7C1382.7 440.7 1353.3 432.3 1323.8 444.8C1294.3 457.3 1264.7 490.7 1235.2 486.5C1205.7 482.3 1176.3 440.7 1147 428.2C1117.7 415.7 1088.3 432.3 1059 444.8C1029.7 457.3 1000.3 465.7 970.8 469.8C941.3 474 911.7 474 882.2 478.2C852.7 482.3 823.3 490.7 794 486.5C764.7 482.3 735.3 465.7 706 449C676.7 432.3 647.3 415.7 617.8 419.8C588.3 424 558.7 449 529.2 444.8C499.7 440.7 470.3 407.3 441 394.8C411.7 382.3 382.3 390.7 353 403.2C323.7 415.7 294.3 432.3 264.8 432.3C235.3 432.3 205.7 415.7 176.2 403.2C146.7 390.7 117.3 382.3 88 386.5C58.7 390.7 29.3 407.3 14.7 415.7L0 424Z" fill="#e98f81"></path><path d="M0 876L14.7 863.5C29.3 851 58.7 826 88 821.8C117.3 817.7 146.7 834.3 176.2 834.3C205.7 834.3 235.3 817.7 264.8 796.8C294.3 776 323.7 751 353 759.3C382.3 767.7 411.7 809.3 441 842.7C470.3 876 499.7 901 529.2 876C558.7 851 588.3 776 617.8 771.8C647.3 767.7 676.7 834.3 706 851C735.3 867.7 764.7 834.3 794 826C823.3 817.7 852.7 834.3 882.2 842.7C911.7 851 941.3 851 970.8 855.2C1000.3 859.3 1029.7 867.7 1059 842.7C1088.3 817.7 1117.7 759.3 1147 763.5C1176.3 767.7 1205.7 834.3 1235.2 842.7C1264.7 851 1294.3 801 1323.8 792.7C1353.3 784.3 1382.7 817.7 1412 826C1441.3 834.3 1470.7 817.7 1485.3 809.3L1500 801L1500 549L1485.3 549C1470.7 549 1441.3 549 1412 549C1382.7 549 1353.3 549 1323.8 561.5C1294.3 574 1264.7 599 1235.2 590.7C1205.7 582.3 1176.3 540.7 1147 524C1117.7 507.3 1088.3 515.7 1059 528.2C1029.7 540.7 1000.3 557.3 970.8 561.5C941.3 565.7 911.7 557.3 882.2 557.3C852.7 557.3 823.3 565.7 794 561.5C764.7 557.3 735.3 540.7 706 524C676.7 507.3 647.3 490.7 617.8 499C588.3 507.3 558.7 540.7 529.2 544.8C499.7 549 470.3 524 441 515.7C411.7 507.3 382.3 515.7 353 528.2C323.7 540.7 294.3 557.3 264.8 557.3C235.3 557.3 205.7 540.7 176.2 528.2C146.7 515.7 117.3 507.3 88 511.5C58.7 515.7 29.3 532.3 14.7 540.7L0 549Z" fill="#df7f6e"></path><path d="M0 1201L14.7 1196.8C29.3 1192.7 58.7 1184.3 88 1184.3C117.3 1184.3 146.7 1192.7 176.2 1221.8C205.7 1251 235.3 1301 264.8 1296.8C294.3 1292.7 323.7 1234.3 353 1230.2C382.3 1226 411.7 1276 441 1296.8C470.3 1317.7 499.7 1309.3 529.2 1263.5C558.7 1217.7 588.3 1134.3 617.8 1155.2C647.3 1176 676.7 1301 706 1351C735.3 1401 764.7 1376 794 1346.8C823.3 1317.7 852.7 1284.3 882.2 1259.3C911.7 1234.3 941.3 1217.7 970.8 1226C1000.3 1234.3 1029.7 1267.7 1059 1271.8C1088.3 1276 1117.7 1251 1147 1234.3C1176.3 1217.7 1205.7 1209.3 1235.2 1234.3C1264.7 1259.3 1294.3 1317.7 1323.8 1338.5C1353.3 1359.3 1382.7 1342.7 1412 1351C1441.3 1359.3 1470.7 1392.7 1485.3 1409.3L1500 1426L1500 799L1485.3 807.3C1470.7 815.7 1441.3 832.3 1412 824C1382.7 815.7 1353.3 782.3 1323.8 790.7C1294.3 799 1264.7 849 1235.2 840.7C1205.7 832.3 1176.3 765.7 1147 761.5C1117.7 757.3 1088.3 815.7 1059 840.7C1029.7 865.7 1000.3 857.3 970.8 853.2C941.3 849 911.7 849 882.2 840.7C852.7 832.3 823.3 815.7 794 824C764.7 832.3 735.3 865.7 706 849C676.7 832.3 647.3 765.7 617.8 769.8C588.3 774 558.7 849 529.2 874C499.7 899 470.3 874 441 840.7C411.7 807.3 382.3 765.7 353 757.3C323.7 749 294.3 774 264.8 794.8C235.3 815.7 205.7 832.3 176.2 832.3C146.7 832.3 117.3 815.7 88 819.8C58.7 824 29.3 849 14.7 861.5L0 874Z" fill="#db7867"></path><path d="M0 1301L14.7 1305.2C29.3 1309.3 58.7 1317.7 88 1317.7C117.3 1317.7 146.7 1309.3 176.2 1338.5C205.7 1367.7 235.3 1434.3 264.8 1438.5C294.3 1442.7 323.7 1384.3 353 1371.8C382.3 1359.3 411.7 1392.7 441 1405.2C470.3 1417.7 499.7 1409.3 529.2 1371.8C558.7 1334.3 588.3 1267.7 617.8 1296.8C647.3 1326 676.7 1451 706 1501C735.3 1551 764.7 1526 794 1488.5C823.3 1451 852.7 1401 882.2 1367.7C911.7 1334.3 941.3 1317.7 970.8 1334.3C1000.3 1351 1029.7 1401 1059 1409.3C1088.3 1417.7 1117.7 1384.3 1147 1367.7C1176.3 1351 1205.7 1351 1235.2 1384.3C1264.7 1417.7 1294.3 1484.3 1323.8 1505.2C1353.3 1526 1382.7 1501 1412 1509.3C1441.3 1517.7 1470.7 1559.3 1485.3 1580.2L1500 1601L1500 1424L1485.3 1407.3C1470.7 1390.7 1441.3 1357.3 1412 1349C1382.7 1340.7 1353.3 1357.3 1323.8 1336.5C1294.3 1315.7 1264.7 1257.3 1235.2 1232.3C1205.7 1207.3 1176.3 1215.7 1147 1232.3C1117.7 1249 1088.3 1274 1059 1269.8C1029.7 1265.7 1000.3 1232.3 970.8 1224C941.3 1215.7 911.7 1232.3 882.2 1257.3C852.7 1282.3 823.3 1315.7 794 1344.8C764.7 1374 735.3 1399 706 1349C676.7 1299 647.3 1174 617.8 1153.2C588.3 1132.3 558.7 1215.7 529.2 1261.5C499.7 1307.3 470.3 1315.7 441 1294.8C411.7 1274 382.3 1224 353 1228.2C323.7 1232.3 294.3 1290.7 264.8 1294.8C235.3 1299 205.7 1249 176.2 1219.8C146.7 1190.7 117.3 1182.3 88 1182.3C58.7 1182.3 29.3 1190.7 14.7 1194.8L0 1199Z" fill="#db7867"></path><path d="M0 1551L14.7 1542.7C29.3 1534.3 58.7 1517.7 88 1513.5C117.3 1509.3 146.7 1517.7 176.2 1555.2C205.7 1592.7 235.3 1659.3 264.8 1655.2C294.3 1651 323.7 1576 353 1567.7C382.3 1559.3 411.7 1617.7 441 1638.5C470.3 1659.3 499.7 1642.7 529.2 1601C558.7 1559.3 588.3 1492.7 617.8 1517.7C647.3 1542.7 676.7 1659.3 706 1696.8C735.3 1734.3 764.7 1692.7 794 1646.8C823.3 1601 852.7 1551 882.2 1530.2C911.7 1509.3 941.3 1517.7 970.8 1538.5C1000.3 1559.3 1029.7 1592.7 1059 1596.8C1088.3 1601 1117.7 1576 1147 1555.2C1176.3 1534.3 1205.7 1517.7 1235.2 1538.5C1264.7 1559.3 1294.3 1617.7 1323.8 1642.7C1353.3 1667.7 1382.7 1659.3 1412 1667.7C1441.3 1676 1470.7 1701 1485.3 1713.5L1500 1726L1500 1599L1485.3 1578.2C1470.7 1557.3 1441.3 1515.7 1412 1507.3C1382.7 1499 1353.3 1524 1323.8 1503.2C1294.3 1482.3 1264.7 1415.7 1235.2 1382.3C1205.7 1349 1176.3 1349 1147 1365.7C1117.7 1382.3 1088.3 1415.7 1059 1407.3C1029.7 1399 1000.3 1349 970.8 1332.3C941.3 1315.7 911.7 1332.3 882.2 1365.7C852.7 1399 823.3 1449 794 1486.5C764.7 1524 735.3 1549 706 1499C676.7 1449 647.3 1324 617.8 1294.8C588.3 1265.7 558.7 1332.3 529.2 1369.8C499.7 1407.3 470.3 1415.7 441 1403.2C411.7 1390.7 382.3 1357.3 353 1369.8C323.7 1382.3 294.3 1440.7 264.8 1436.5C235.3 1432.3 205.7 1365.7 176.2 1336.5C146.7 1307.3 117.3 1315.7 88 1315.7C58.7 1315.7 29.3 1307.3 14.7 1303.2L0 1299Z" fill="#df7f6e"></path><path d="M0 2151L14.7 2134.3C29.3 2117.7 58.7 2084.3 88 2080.2C117.3 2076 146.7 2101 176.2 2121.8C205.7 2142.7 235.3 2159.3 264.8 2155.2C294.3 2151 323.7 2126 353 2117.7C382.3 2109.3 411.7 2117.7 441 2126C470.3 2134.3 499.7 2142.7 529.2 2142.7C558.7 2142.7 588.3 2134.3 617.8 2134.3C647.3 2134.3 676.7 2142.7 706 2134.3C735.3 2126 764.7 2101 794 2092.7C823.3 2084.3 852.7 2092.7 882.2 2092.7C911.7 2092.7 941.3 2084.3 970.8 2092.7C1000.3 2101 1029.7 2126 1059 2126C1088.3 2126 1117.7 2101 1147 2096.8C1176.3 2092.7 1205.7 2109.3 1235.2 2117.7C1264.7 2126 1294.3 2126 1323.8 2117.7C1353.3 2109.3 1382.7 2092.7 1412 2096.8C1441.3 2101 1470.7 2126 1485.3 2138.5L1500 2151L1500 1724L1485.3 1711.5C1470.7 1699 1441.3 1674 1412 1665.7C1382.7 1657.3 1353.3 1665.7 1323.8 1640.7C1294.3 1615.7 1264.7 1557.3 1235.2 1536.5C1205.7 1515.7 1176.3 1532.3 1147 1553.2C1117.7 1574 1088.3 1599 1059 1594.8C1029.7 1590.7 1000.3 1557.3 970.8 1536.5C941.3 1515.7 911.7 1507.3 882.2 1528.2C852.7 1549 823.3 1599 794 1644.8C764.7 1690.7 735.3 1732.3 706 1694.8C676.7 1657.3 647.3 1540.7 617.8 1515.7C588.3 1490.7 558.7 1557.3 529.2 1599C499.7 1640.7 470.3 1657.3 441 1636.5C411.7 1615.7 382.3 1557.3 353 1565.7C323.7 1574 294.3 1649 264.8 1653.2C235.3 1657.3 205.7 1590.7 176.2 1553.2C146.7 1515.7 117.3 1507.3 88 1511.5C58.7 1515.7 29.3 1532.3 14.7 1540.7L0 1549Z" fill="#e98f81"></path><path d="M0 2301L14.7 2292.7C29.3 2284.3 58.7 2267.7 88 2263.5C117.3 2259.3 146.7 2267.7 176.2 2271.8C205.7 2276 235.3 2276 264.8 2271.8C294.3 2267.7 323.7 2259.3 353 2263.5C382.3 2267.7 411.7 2284.3 441 2292.7C470.3 2301 499.7 2301 529.2 2296.8C558.7 2292.7 588.3 2284.3 617.8 2284.3C647.3 2284.3 676.7 2292.7 706 2288.5C735.3 2284.3 764.7 2267.7 794 2271.8C823.3 2276 852.7 2301 882.2 2305.2C911.7 2309.3 941.3 2292.7 970.8 2288.5C1000.3 2284.3 1029.7 2292.7 1059 2288.5C1088.3 2284.3 1117.7 2267.7 1147 2267.7C1176.3 2267.7 1205.7 2284.3 1235.2 2284.3C1264.7 2284.3 1294.3 2267.7 1323.8 2259.3C1353.3 2251 1382.7 2251 1412 2259.3C1441.3 2267.7 1470.7 2284.3 1485.3 2292.7L1500 2301L1500 2149L1485.3 2136.5C1470.7 2124 1441.3 2099 1412 2094.8C1382.7 2090.7 1353.3 2107.3 1323.8 2115.7C1294.3 2124 1264.7 2124 1235.2 2115.7C1205.7 2107.3 1176.3 2090.7 1147 2094.8C1117.7 2099 1088.3 2124 1059 2124C1029.7 2124 1000.3 2099 970.8 2090.7C941.3 2082.3 911.7 2090.7 882.2 2090.7C852.7 2090.7 823.3 2082.3 794 2090.7C764.7 2099 735.3 2124 706 2132.3C676.7 2140.7 647.3 2132.3 617.8 2132.3C588.3 2132.3 558.7 2140.7 529.2 2140.7C499.7 2140.7 470.3 2132.3 441 2124C411.7 2115.7 382.3 2107.3 353 2115.7C323.7 2124 294.3 2149 264.8 2153.2C235.3 2157.3 205.7 2140.7 176.2 2119.8C146.7 2099 117.3 2074 88 2078.2C58.7 2082.3 29.3 2115.7 14.7 2132.3L0 2149Z" fill="#f1a093"></path><path d="M0 2376L14.7 2371.8C29.3 2367.7 58.7 2359.3 88 2359.3C117.3 2359.3 146.7 2367.7 176.2 2367.7C205.7 2367.7 235.3 2359.3 264.8 2355.2C294.3 2351 323.7 2351 353 2355.2C382.3 2359.3 411.7 2367.7 441 2371.8C470.3 2376 499.7 2376 529.2 2371.8C558.7 2367.7 588.3 2359.3 617.8 2363.5C647.3 2367.7 676.7 2384.3 706 2384.3C735.3 2384.3 764.7 2367.7 794 2367.7C823.3 2367.7 852.7 2384.3 882.2 2388.5C911.7 2392.7 941.3 2384.3 970.8 2380.2C1000.3 2376 1029.7 2376 1059 2371.8C1088.3 2367.7 1117.7 2359.3 1147 2363.5C1176.3 2367.7 1205.7 2384.3 1235.2 2384.3C1264.7 2384.3 1294.3 2367.7 1323.8 2359.3C1353.3 2351 1382.7 2351 1412 2355.2C1441.3 2359.3 1470.7 2367.7 1485.3 2371.8L1500 2376L1500 2299L1485.3 2290.7C1470.7 2282.3 1441.3 2265.7 1412 2257.3C1382.7 2249 1353.3 2249 1323.8 2257.3C1294.3 2265.7 1264.7 2282.3 1235.2 2282.3C1205.7 2282.3 1176.3 2265.7 1147 2265.7C1117.7 2265.7 1088.3 2282.3 1059 2286.5C1029.7 2290.7 1000.3 2282.3 970.8 2286.5C941.3 2290.7 911.7 2307.3 882.2 2303.2C852.7 2299 823.3 2274 794 2269.8C764.7 2265.7 735.3 2282.3 706 2286.5C676.7 2290.7 647.3 2282.3 617.8 2282.3C588.3 2282.3 558.7 2290.7 529.2 2294.8C499.7 2299 470.3 2299 441 2290.7C411.7 2282.3 382.3 2265.7 353 2261.5C323.7 2257.3 294.3 2265.7 264.8 2269.8C235.3 2274 205.7 2274 176.2 2269.8C146.7 2265.7 117.3 2257.3 88 2261.5C58.7 2265.7 29.3 2282.3 14.7 2290.7L0 2299Z" fill="#f4aea2"></path><path d="M0 2501L14.7 2501C29.3 2501 58.7 2501 88 2501C117.3 2501 146.7 2501 176.2 2501C205.7 2501 235.3 2501 264.8 2501C294.3 2501 323.7 2501 353 2501C382.3 2501 411.7 2501 441 2501C470.3 2501 499.7 2501 529.2 2501C558.7 2501 588.3 2501 617.8 2501C647.3 2501 676.7 2501 706 2501C735.3 2501 764.7 2501 794 2501C823.3 2501 852.7 2501 882.2 2501C911.7 2501 941.3 2501 970.8 2501C1000.3 2501 1029.7 2501 1059 2501C1088.3 2501 1117.7 2501 1147 2501C1176.3 2501 1205.7 2501 1235.2 2501C1264.7 2501 1294.3 2501 1323.8 2501C1353.3 2501 1382.7 2501 1412 2501C1441.3 2501 1470.7 2501 1485.3 2501L1500 2501L1500 2374L1485.3 2369.8C1470.7 2365.7 1441.3 2357.3 1412 2353.2C1382.7 2349 1353.3 2349 1323.8 2357.3C1294.3 2365.7 1264.7 2382.3 1235.2 2382.3C1205.7 2382.3 1176.3 2365.7 1147 2361.5C1117.7 2357.3 1088.3 2365.7 1059 2369.8C1029.7 2374 1000.3 2374 970.8 2378.2C941.3 2382.3 911.7 2390.7 882.2 2386.5C852.7 2382.3 823.3 2365.7 794 2365.7C764.7 2365.7 735.3 2382.3 706 2382.3C676.7 2382.3 647.3 2365.7 617.8 2361.5C588.3 2357.3 558.7 2365.7 529.2 2369.8C499.7 2374 470.3 2374 441 2369.8C411.7 2365.7 382.3 2357.3 353 2353.2C323.7 2349 294.3 2349 264.8 2353.2C235.3 2357.3 205.7 2365.7 176.2 2365.7C146.7 2365.7 117.3 2357.3 88 2357.3C58.7 2357.3 29.3 2365.7 14.7 2369.8L0 2374Z" fill="#f7bcb1"></path></svg>