<svg id="visual" viewBox="0 0 1500 2500" width="1500" height="2500" xmlns="http://www.w3.org/2000/svg" xmlns:xlink="http://www.w3.org/1999/xlink" version="1.1"><path d="M0 326L22.7 305.2C45.3 284.3 90.7 242.7 136.2 230.2C181.7 217.7 227.3 234.3 272.8 246.8C318.3 259.3 363.7 267.7 409 271.8C454.3 276 499.7 276 545.2 271.8C590.7 267.7 636.3 259.3 681.8 276C727.3 292.7 772.7 334.3 818.2 342.7C863.7 351 909.3 326 954.8 326C1000.3 326 1045.7 351 1091 363.5C1136.3 376 1181.7 376 1227.2 359.3C1272.7 342.7 1318.3 309.3 1363.8 301C1409.3 292.7 1454.7 309.3 1477.3 317.7L1500 326L1500 0L1477.3 0C1454.7 0 1409.3 0 1363.8 0C1318.3 0 1272.7 0 1227.2 0C1181.7 0 1136.3 0 1091 0C1045.7 0 1000.3 0 954.8 0C909.3 0 863.7 0 818.2 0C772.7 0 727.3 0 681.8 0C636.3 0 590.7 0 545.2 0C499.7 0 454.3 0 409 0C363.7 0 318.3 0 272.8 0C227.3 0 181.7 0 136.2 0C90.7 0 45.3 0 22.7 0L0 0Z" fill="#e5e1ff"></path><path d="M0 476L22.7 451C45.3 426 90.7 376 136.2 371.8C181.7 367.7 227.3 409.3 272.8 434.3C318.3 459.3 363.7 467.7 409 463.5C454.3 459.3 499.7 442.7 545.2 438.5C590.7 434.3 636.3 442.7 681.8 451C727.3 459.3 772.7 467.7 818.2 463.5C863.7 459.3 909.3 442.7 954.8 455.2C1000.3 467.7 1045.7 509.3 1091 534.3C1136.3 559.3 1181.7 567.7 1227.2 551C1272.7 534.3 1318.3 492.7 1363.8 471.8C1409.3 451 1454.7 451 1477.3 451L1500 451L1500 324L1477.3 315.7C1454.7 307.3 1409.3 290.7 1363.8 299C1318.3 307.3 1272.7 340.7 1227.2 357.3C1181.7 374 1136.3 374 1091 361.5C1045.7 349 1000.3 324 954.8 324C909.3 324 863.7 349 818.2 340.7C772.7 332.3 727.3 290.7 681.8 274C636.3 257.3 590.7 265.7 545.2 269.8C499.7 274 454.3 274 409 269.8C363.7 265.7 318.3 257.3 272.8 244.8C227.3 232.3 181.7 215.7 136.2 228.2C90.7 240.7 45.3 282.3 22.7 303.2L0 324Z" fill="#dfdaff"></path><path d="M0 626L22.7 601C45.3 576 90.7 526 136.2 521.8C181.7 517.7 227.3 559.3 272.8 584.3C318.3 609.3 363.7 617.7 409 617.7C454.3 617.7 499.7 609.3 545.2 601C590.7 592.7 636.3 584.3 681.8 592.7C727.3 601 772.7 626 818.2 613.5C863.7 601 909.3 551 954.8 563.5C1000.3 576 1045.7 651 1091 688.5C1136.3 726 1181.7 726 1227.2 701C1272.7 676 1318.3 626 1363.8 605.2C1409.3 584.3 1454.7 592.7 1477.3 596.8L1500 601L1500 449L1477.3 449C1454.7 449 1409.3 449 1363.8 469.8C1318.3 490.7 1272.7 532.3 1227.2 549C1181.7 565.7 1136.3 557.3 1091 532.3C1045.7 507.3 1000.3 465.7 954.8 453.2C909.3 440.7 863.7 457.3 818.2 461.5C772.7 465.7 727.3 457.3 681.8 449C636.3 440.7 590.7 432.3 545.2 436.5C499.7 440.7 454.3 457.3 409 461.5C363.7 465.7 318.3 457.3 272.8 432.3C227.3 407.3 181.7 365.7 136.2 369.8C90.7 374 45.3 424 22.7 449L0 474Z" fill="#d9d3ff"></path><path d="M0 726L22.7 709.3C45.3 692.7 90.7 659.3 136.2 655.2C181.7 651 227.3 676 272.8 684.3C318.3 692.7 363.7 684.3 409 688.5C454.3 692.7 499.7 709.3 545.2 701C590.7 692.7 636.3 659.3 681.8 659.3C727.3 659.3 772.7 692.7 818.2 696.8C863.7 701 909.3 676 954.8 696.8C1000.3 717.7 1045.7 784.3 1091 817.7C1136.3 851 1181.7 851 1227.2 826C1272.7 801 1318.3 751 1363.8 726C1409.3 701 1454.7 701 1477.3 701L1500 701L1500 599L1477.3 594.8C1454.7 590.7 1409.3 582.3 1363.8 603.2C1318.3 624 1272.7 674 1227.2 699C1181.7 724 1136.3 724 1091 686.5C1045.7 649 1000.3 574 954.8 561.5C909.3 549 863.7 599 818.2 611.5C772.7 624 727.3 599 681.8 590.7C636.3 582.3 590.7 590.7 545.2 599C499.7 607.3 454.3 615.7 409 615.7C363.7 615.7 318.3 607.3 272.8 582.3C227.3 557.3 181.7 515.7 136.2 519.8C90.7 524 45.3 574 22.7 599L0 624Z" fill="#cfc7ff"></path><path d="M0 876L22.7 855.2C45.3 834.3 90.7 792.7 136.2 792.7C181.7 792.7 227.3 834.3 272.8 830.2C318.3 826 363.7 776 409 763.5C454.3 751 499.7 776 545.2 771.8C590.7 767.7 636.3 734.3 681.8 746.8C727.3 759.3 772.7 817.7 818.2 834.3C863.7 851 909.3 826 954.8 851C1000.3 876 1045.7 951 1091 967.7C1136.3 984.3 1181.7 942.7 1227.2 905.2C1272.7 867.7 1318.3 834.3 1363.8 813.5C1409.3 792.7 1454.7 784.3 1477.3 780.2L1500 776L1500 699L1477.3 699C1454.7 699 1409.3 699 1363.8 724C1318.3 749 1272.7 799 1227.2 824C1181.7 849 1136.3 849 1091 815.7C1045.7 782.3 1000.3 715.7 954.8 694.8C909.3 674 863.7 699 818.2 694.8C772.7 690.7 727.3 657.3 681.8 657.3C636.3 657.3 590.7 690.7 545.2 699C499.7 707.3 454.3 690.7 409 686.5C363.7 682.3 318.3 690.7 272.8 682.3C227.3 674 181.7 649 136.2 653.2C90.7 657.3 45.3 690.7 22.7 707.3L0 724Z" fill="#c3b9ff"></path><path d="M0 951L22.7 934.3C45.3 917.7 90.7 884.3 136.2 880.2C181.7 876 227.3 901 272.8 901C318.3 901 363.7 876 409 867.7C454.3 859.3 499.7 867.7 545.2 855.2C590.7 842.7 636.3 809.3 681.8 817.7C727.3 826 772.7 876 818.2 896.8C863.7 917.7 909.3 909.3 954.8 934.3C1000.3 959.3 1045.7 1017.7 1091 1038.5C1136.3 1059.3 1181.7 1042.7 1227.2 1005.2C1272.7 967.7 1318.3 909.3 1363.8 884.3C1409.3 859.3 1454.7 867.7 1477.3 871.8L1500 876L1500 774L1477.3 778.2C1454.7 782.3 1409.3 790.7 1363.8 811.5C1318.3 832.3 1272.7 865.7 1227.2 903.2C1181.7 940.7 1136.3 982.3 1091 965.7C1045.7 949 1000.3 874 954.8 849C909.3 824 863.7 849 818.2 832.3C772.7 815.7 727.3 757.3 681.8 744.8C636.3 732.3 590.7 765.7 545.2 769.8C499.7 774 454.3 749 409 761.5C363.7 774 318.3 824 272.8 828.2C227.3 832.3 181.7 790.7 136.2 790.7C90.7 790.7 45.3 832.3 22.7 853.2L0 874Z" fill="#beb3ff"></path><path d="M0 1126L22.7 1101C45.3 1076 90.7 1026 136.2 1013.5C181.7 1001 227.3 1026 272.8 1034.3C318.3 1042.7 363.7 1034.3 409 1034.3C454.3 1034.3 499.7 1042.7 545.2 1026C590.7 1009.3 636.3 967.7 681.8 959.3C727.3 951 772.7 976 818.2 1005.2C863.7 1034.3 909.3 1067.7 954.8 1096.8C1000.3 1126 1045.7 1151 1091 1151C1136.3 1151 1181.7 1126 1227.2 1084.3C1272.7 1042.7 1318.3 984.3 1363.8 971.8C1409.3 959.3 1454.7 992.7 1477.3 1009.3L1500 1026L1500 874L1477.3 869.8C1454.7 865.7 1409.3 857.3 1363.8 882.3C1318.3 907.3 1272.7 965.7 1227.2 1003.2C1181.7 1040.7 1136.3 1057.3 1091 1036.5C1045.7 1015.7 1000.3 957.3 954.8 932.3C909.3 907.3 863.7 915.7 818.2 894.8C772.7 874 727.3 824 681.8 815.7C636.3 807.3 590.7 840.7 545.2 853.2C499.7 865.7 454.3 857.3 409 865.7C363.7 874 318.3 899 272.8 899C227.3 899 181.7 874 136.2 878.2C90.7 882.3 45.3 915.7 22.7 932.3L0 949Z" fill="#beb3ff"></path><path d="M0 1376L22.7 1355.2C45.3 1334.3 90.7 1292.7 136.2 1259.3C181.7 1226 227.3 1201 272.8 1184.3C318.3 1167.7 363.7 1159.3 409 1167.7C454.3 1176 499.7 1201 545.2 1180.2C590.7 1159.3 636.3 1092.7 681.8 1096.8C727.3 1101 772.7 1176 818.2 1217.7C863.7 1259.3 909.3 1267.7 954.8 1296.8C1000.3 1326 1045.7 1376 1091 1363.5C1136.3 1351 1181.7 1276 1227.2 1234.3C1272.7 1192.7 1318.3 1184.3 1363.8 1171.8C1409.3 1159.3 1454.7 1142.7 1477.3 1134.3L1500 1126L1500 1024L1477.3 1007.3C1454.7 990.7 1409.3 957.3 1363.8 969.8C1318.3 982.3 1272.7 1040.7 1227.2 1082.3C1181.7 1124 1136.3 1149 1091 1149C1045.7 1149 1000.3 1124 954.8 1094.8C909.3 1065.7 863.7 1032.3 818.2 1003.2C772.7 974 727.3 949 681.8 957.3C636.3 965.7 590.7 1007.3 545.2 1024C499.7 1040.7 454.3 1032.3 409 1032.3C363.7 1032.3 318.3 1040.7 272.8 1032.3C227.3 1024 181.7 999 136.2 1011.5C90.7 1024 45.3 1074 22.7 1099L0 1124Z" fill="#c3b9ff"></path><path d="M0 1601L22.7 1580.2C45.3 1559.3 90.7 1517.7 136.2 1501C181.7 1484.3 227.3 1492.7 272.8 1480.2C318.3 1467.7 363.7 1434.3 409 1421.8C454.3 1409.3 499.7 1417.7 545.2 1388.5C590.7 1359.3 636.3 1292.7 681.8 1313.5C727.3 1334.3 772.7 1442.7 818.2 1467.7C863.7 1492.7 909.3 1434.3 954.8 1438.5C1000.3 1442.7 1045.7 1509.3 1091 1538.5C1136.3 1567.7 1181.7 1559.3 1227.2 1513.5C1272.7 1467.7 1318.3 1384.3 1363.8 1367.7C1409.3 1351 1454.7 1401 1477.3 1426L1500 1451L1500 1124L1477.3 1132.3C1454.7 1140.7 1409.3 1157.3 1363.8 1169.8C1318.3 1182.3 1272.7 1190.7 1227.2 1232.3C1181.7 1274 1136.3 1349 1091 1361.5C1045.7 1374 1000.3 1324 954.8 1294.8C909.3 1265.7 863.7 1257.3 818.2 1215.7C772.7 1174 727.3 1099 681.8 1094.8C636.3 1090.7 590.7 1157.3 545.2 1178.2C499.7 1199 454.3 1174 409 1165.7C363.7 1157.3 318.3 1165.7 272.8 1182.3C227.3 1199 181.7 1224 136.2 1257.3C90.7 1290.7 45.3 1332.3 22.7 1353.2L0 1374Z" fill="#cfc7ff"></path><path d="M0 1701L22.7 1680.2C45.3 1659.3 90.7 1617.7 136.2 1605.2C181.7 1592.7 227.3 1609.3 272.8 1596.8C318.3 1584.3 363.7 1542.7 409 1521.8C454.3 1501 499.7 1501 545.2 1480.2C590.7 1459.3 636.3 1417.7 681.8 1446.8C727.3 1476 772.7 1576 818.2 1592.7C863.7 1609.3 909.3 1542.7 954.8 1551C1000.3 1559.3 1045.7 1642.7 1091 1676C1136.3 1709.3 1181.7 1692.7 1227.2 1634.3C1272.7 1576 1318.3 1476 1363.8 1451C1409.3 1426 1454.7 1476 1477.3 1501L1500 1526L1500 1449L1477.3 1424C1454.7 1399 1409.3 1349 1363.8 1365.7C1318.3 1382.3 1272.7 1465.7 1227.2 1511.5C1181.7 1557.3 1136.3 1565.7 1091 1536.5C1045.7 1507.3 1000.3 1440.7 954.8 1436.5C909.3 1432.3 863.7 1490.7 818.2 1465.7C772.7 1440.7 727.3 1332.3 681.8 1311.5C636.3 1290.7 590.7 1357.3 545.2 1386.5C499.7 1415.7 454.3 1407.3 409 1419.8C363.7 1432.3 318.3 1465.7 272.8 1478.2C227.3 1490.7 181.7 1482.3 136.2 1499C90.7 1515.7 45.3 1557.3 22.7 1578.2L0 1599Z" fill="#d9d3ff"></path><path d="M0 2226L22.7 2217.7C45.3 2209.3 90.7 2192.7 136.2 2130.2C181.7 2067.7 227.3 1959.3 272.8 1909.3C318.3 1859.3 363.7 1867.7 409 1913.5C454.3 1959.3 499.7 2042.7 545.2 2009.3C590.7 1976 636.3 1826 681.8 1826C727.3 1826 772.7 1976 818.2 1996.8C863.7 2017.7 909.3 1909.3 954.8 1892.7C1000.3 1876 1045.7 1951 1091 2001C1136.3 2051 1181.7 2076 1227.2 2076C1272.7 2076 1318.3 2051 1363.8 2034.3C1409.3 2017.7 1454.7 2009.3 1477.3 2005.2L1500 2001L1500 1524L1477.3 1499C1454.7 1474 1409.3 1424 1363.8 1449C1318.3 1474 1272.7 1574 1227.2 1632.3C1181.7 1690.7 1136.3 1707.3 1091 1674C1045.7 1640.7 1000.3 1557.3 954.8 1549C909.3 1540.7 863.7 1607.3 818.2 1590.7C772.7 1574 727.3 1474 681.8 1444.8C636.3 1415.7 590.7 1457.3 545.2 1478.2C499.7 1499 454.3 1499 409 1519.8C363.7 1540.7 318.3 1582.3 272.8 1594.8C227.3 1607.3 181.7 1590.7 136.2 1603.2C90.7 1615.7 45.3 1657.3 22.7 1678.2L0 1699Z" fill="#dfdaff"></path><path d="M0 2501L22.7 2501C45.3 2501 90.7 2501 136.2 2501C181.7 2501 227.3 2501 272.8 2501C318.3 2501 363.7 2501 409 2501C454.3 2501 499.7 2501 545.2 2501C590.7 2501 636.3 2501 681.8 2501C727.3 2501 772.7 2501 818.2 2501C863.7 2501 909.3 2501 954.8 2501C1000.3 2501 1045.7 2501 1091 2501C1136.3 2501 1181.7 2501 1227.2 2501C1272.7 2501 1318.3 2501 1363.8 2501C1409.3 2501 1454.7 2501 1477.3 2501L1500 2501L1500 1999L1477.3 2003.2C1454.7 2007.3 1409.3 2015.7 1363.8 2032.3C1318.3 2049 1272.7 2074 1227.2 2074C1181.7 2074 1136.3 2049 1091 1999C1045.7 1949 1000.3 1874 954.8 1890.7C909.3 1907.3 863.7 2015.7 818.2 1994.8C772.7 1974 727.3 1824 681.8 1824C636.3 1824 590.7 1974 545.2 2007.3C499.7 2040.7 454.3 1957.3 409 1911.5C363.7 1865.7 318.3 1857.3 272.8 1907.3C227.3 1957.3 181.7 2065.7 136.2 2128.2C90.7 2190.7 45.3 2207.3 22.7 2215.7L0 2224Z" fill="#e5e1ff"></path></svg>