<svg id="visual" viewBox="0 0 1200 125" width="1200" height="125" xmlns="http://www.w3.org/2000/svg" xmlns:xlink="http://www.w3.org/1999/xlink" version="1.1"><path d="M0 42L28.5 41.5C57 41 114 40 171.2 43.2C228.3 46.3 285.7 53.7 342.8 56.3C400 59 457 57 514.2 57.7C571.3 58.3 628.7 61.7 685.8 61.7C743 61.7 800 58.3 857.2 55.7C914.3 53 971.7 51 1028.8 48.8C1086 46.7 1143 44.3 1171.5 43.2L1200 42L1200 0L1171.5 0C1143 0 1086 0 1028.8 0C971.7 0 914.3 0 857.2 0C800 0 743 0 685.8 0C628.7 0 571.3 0 514.2 0C457 0 400 0 342.8 0C285.7 0 228.3 0 171.2 0C114 0 57 0 28.5 0L0 0Z" fill="#a4cd8e"></path><path d="M0 87L28.5 88.3C57 89.7 114 92.3 171.2 94.8C228.3 97.3 285.7 99.7 342.8 99.8C400 100 457 98 514.2 97.8C571.3 97.7 628.7 99.3 685.8 98.2C743 97 800 93 857.2 91C914.3 89 971.7 89 1028.8 88.7C1086 88.3 1143 87.7 1171.5 87.3L1200 87L1200 40L1171.5 41.2C1143 42.3 1086 44.7 1028.8 46.8C971.7 49 914.3 51 857.2 53.7C800 56.3 743 59.7 685.8 59.7C628.7 59.7 571.3 56.3 514.2 55.7C457 55 400 57 342.8 54.3C285.7 51.7 228.3 44.3 171.2 41.2C114 38 57 39 28.5 39.5L0 40Z" fill="#95bc80"></path><path d="M0 126L28.5 126C57 126 114 126 171.2 126C228.3 126 285.7 126 342.8 126C400 126 457 126 514.2 126C571.3 126 628.7 126 685.8 126C743 126 800 126 857.2 126C914.3 126 971.7 126 1028.8 126C1086 126 1143 126 1171.5 126L1200 126L1200 85L1171.5 85.3C1143 85.7 1086 86.3 1028.8 86.7C971.7 87 914.3 87 857.2 89C800 91 743 95 685.8 96.2C628.7 97.3 571.3 95.7 514.2 95.8C457 96 400 98 342.8 97.8C285.7 97.7 228.3 95.3 171.2 92.8C114 90.3 57 87.7 28.5 86.3L0 85Z" fill="#87ac72"></path></svg>