<svg id="visual" viewBox="0 0 600 1200" width="600" height="1200" xmlns="http://www.w3.org/2000/svg" xmlns:xlink="http://www.w3.org/1999/xlink" version="1.1"><rect x="0" y="0" width="600" height="1200" fill="#faf7ea"></rect><path d="M222 1200L210.8 1160C199.7 1120 177.3 1040 215 960C252.7 880 350.3 800 356 720C361.7 640 275.3 560 269.3 480C263.3 400 337.7 320 363.8 240C390 160 368 80 357 40L346 0L600 0L600 40C600 80 600 160 600 240C600 320 600 400 600 480C600 560 600 640 600 720C600 800 600 880 600 960C600 1040 600 1120 600 1160L600 1200Z" fill="#f4f0e1" stroke-linecap="round" stroke-linejoin="miter"></path></svg>